<?xml version="1.0" standalone="no"?>
<!DOCTYPE svg PUBLIC "-//W3C//DTD SVG 20010904//EN"
 "http://www.w3.org/TR/2001/REC-SVG-20010904/DTD/svg10.dtd">
<svg version="1.0" xmlns="http://www.w3.org/2000/svg"
 width="260.000000pt" height="260.000000pt" viewBox="0 0 260.000000 260.000000"
 preserveAspectRatio="xMidYMid meet">
<metadata>
Created by potrace 1.11, written by Peter Selinger 2001-2013
</metadata>
<g transform="translate(0.000000,260.000000) scale(0.100000,-0.100000)"
fill="#000000" stroke="none">
<path d="M0 1300 l0 -1300 1300 0 1301 0 -5 453 c-8 699 -8 906 -1 1550 l7
597 -1301 0 -1301 0 0 -1300z m2135 956 c14 -13 47 -29 74 -36 41 -10 49 -16
60 -46 7 -18 20 -38 30 -44 12 -6 20 -25 24 -52 4 -33 14 -50 40 -73 33 -28
35 -35 41 -109 4 -43 11 -86 15 -95 5 -9 17 -50 26 -91 15 -62 18 -142 22
-455 4 -373 3 -382 -21 -500 -13 -66 -29 -138 -35 -160 -6 -22 -11 -66 -11
-97 0 -47 -4 -60 -23 -75 -31 -24 -43 -48 -51 -105 -4 -28 -17 -60 -32 -77
-13 -16 -24 -33 -24 -38 0 -5 -24 -30 -54 -56 l-55 -47 -115 0 c-111 0 -117 1
-137 25 -12 13 -34 27 -50 30 -31 7 -43 19 -54 55 -4 14 -17 39 -30 55 -12 17
-25 48 -29 70 -4 22 -20 56 -34 75 -23 29 -27 47 -30 110 -2 41 -7 84 -12 95
-11 23 -26 112 -41 240 -18 148 -5 613 21 765 12 69 24 160 28 202 5 54 13 85
28 105 12 16 29 54 38 86 10 34 24 61 36 67 11 6 20 16 20 22 0 6 16 28 35 49
19 22 35 43 35 49 0 5 20 15 45 21 25 6 50 20 55 30 8 13 25 19 68 22 31 2 60
4 64 5 4 1 19 -9 33 -22z m-890 -6 c9 -10 32 -24 51 -30 18 -6 36 -20 39 -30
3 -11 20 -32 36 -47 16 -15 40 -44 51 -63 12 -19 31 -47 43 -62 16 -19 24 -46
29 -104 5 -56 13 -86 29 -108 l22 -31 0 -550 0 -550 -27 -67 c-17 -40 -28 -85
-28 -114 0 -62 -88 -245 -126 -262 -13 -7 -24 -18 -24 -26 0 -8 -13 -25 -29
-38 -16 -13 -34 -33 -40 -46 -11 -21 -18 -22 -125 -22 -112 0 -113 0 -144 30
-17 16 -43 32 -57 36 -17 4 -40 27 -65 65 -22 32 -44 60 -49 63 -5 4 -12 25
-16 49 -4 23 -18 65 -31 92 -19 42 -24 72 -29 195 -4 80 -14 183 -23 230 -19
100 -21 421 -4 541 6 42 16 161 22 265 10 161 15 196 34 239 13 28 26 66 30
86 6 35 45 96 81 129 9 8 36 33 58 56 23 23 52 44 65 48 12 4 27 16 32 27 9
16 22 19 94 19 70 0 86 -3 101 -20z m-631 -43 c16 -12 16 -26 6 -202 -5 -105
-10 -222 -9 -262 1 -39 -2 -77 -6 -83 -17 -27 -22 -603 -11 -1187 l6 -302 -22
-15 c-20 -13 -40 -13 -143 -3 -66 7 -126 17 -134 21 -12 8 -13 75 -7 445 3
240 13 515 21 611 19 224 20 493 3 508 -7 6 -29 13 -50 17 -40 8 -72 37 -81
75 -10 39 12 210 33 257 21 47 24 49 146 58 98 6 141 20 172 51 25 27 50 30
76 11z"/>
<path d="M1967 1748 c-17 -13 -18 -43 -17 -558 0 -377 4 -548 12 -557 7 -9 36
-13 84 -13 68 0 75 2 82 23 5 12 9 133 10 270 1 136 7 318 13 405 5 86 12 198
14 247 3 50 7 104 10 122 8 44 -15 63 -73 63 -26 0 -63 3 -82 6 -22 3 -42 0
-53 -8z"/>
<path d="M1036 1744 c-8 -21 -8 -1088 0 -1108 9 -25 170 -23 182 2 5 9 12 136
16 282 3 146 11 299 16 340 6 41 13 156 16 255 7 216 7 216 -3 225 -4 4 -56
10 -115 13 -89 5 -107 3 -112 -9z"/>
</g>
</svg>
